<?xml version="1.0" standalone="no"?>
<!DOCTYPE svg PUBLIC "-//W3C//DTD SVG 20010904//EN"
 "http://www.w3.org/TR/2001/REC-SVG-20010904/DTD/svg10.dtd">
<svg version="1.0" xmlns="http://www.w3.org/2000/svg"
 width="512.000000pt" height="512.000000pt" viewBox="0 0 512.000000 512.000000"
 preserveAspectRatio="xMidYMid meet">

<g transform="translate(0.000000,512.000000) scale(0.100000,-0.100000)"
fill="#000000" stroke="none">
<path d="M2215 5107 c-65 -22 -99 -43 -138 -86 -47 -52 -63 -84 -77 -157 -10
-51 -9 -71 4 -125 37 -142 80 -175 404 -314 l252 -107 0 -37 c0 -39 -57 -574
-64 -606 -4 -17 -34 -27 -190 -67 -102 -25 -205 -56 -229 -68 -63 -32 -580
-439 -653 -514 -114 -118 -164 -278 -135 -432 22 -112 48 -156 262 -440 293
-390 289 -385 417 -440 1 -1 -104 -279 -233 -618 -243 -636 -259 -689 -244
-786 17 -106 100 -220 195 -268 176 -88 395 -23 487 145 14 27 137 345 272
708 136 363 250 663 254 667 4 4 31 -142 60 -325 177 -1096 164 -1040 261
-1131 237 -221 620 -62 620 257 0 33 -50 367 -110 743 -67 417 -116 751 -125
856 -44 531 -126 999 -261 1510 l-28 107 38 358 c27 254 36 376 31 418 -27
230 -159 421 -360 522 -33 17 -167 76 -298 132 -205 88 -248 103 -305 107 -41
2 -83 -1 -107 -9z m331 -326 c127 -54 254 -111 283 -126 104 -52 187 -168 211
-294 10 -55 5 -116 -40 -518 -30 -260 -29 -276 40 -550 119 -477 185 -873 225
-1353 9 -110 55 -429 125 -860 60 -377 110 -698 110 -715 0 -44 -35 -94 -77
-112 -31 -12 -44 -13 -78 -3 -55 16 -82 44 -94 99 -6 25 -72 424 -146 886 -75
462 -142 854 -150 872 -19 43 -60 68 -112 68 -81 0 -68 29 -433 -949 -182
-489 -337 -901 -345 -916 -29 -57 -111 -78 -174 -45 -32 16 -61 69 -61 111 0
23 535 1442 617 1639 132 313 120 677 -34 977 -36 70 -51 89 -80 103 -70 33
-98 18 -373 -202 -107 -87 -135 -136 -135 -238 1 -52 6 -81 22 -110 11 -22 96
-139 188 -259 l168 -219 -17 -54 c-19 -60 -38 -73 -72 -52 -32 19 -443 564
-467 619 -36 80 -23 182 33 260 18 25 521 428 591 473 13 9 107 37 209 62 104
26 203 57 227 71 54 31 99 87 117 144 8 25 31 197 51 382 39 368 39 379 -11
465 -13 23 -39 54 -58 68 -18 14 -147 74 -287 135 -139 61 -260 117 -268 125
-23 22 -18 75 8 97 13 10 31 18 40 18 9 0 120 -45 247 -99z m-294 -2033 c29
-94 39 -165 40 -273 0 -58 -2 -108 -5 -111 -7 -7 -229 285 -225 296 3 10 159
138 169 139 3 1 13 -23 21 -51z"/>
<path d="M1855 4500 c-71 -11 -127 -34 -190 -76 -203 -134 -264 -393 -147
-619 47 -91 160 -181 271 -215 250 -78 512 66 588 323 21 72 18 199 -6 269
-75 217 -296 353 -516 318z m197 -275 c115 -76 132 -246 35 -345 -141 -145
-386 -47 -387 156 0 68 41 149 95 187 74 51 182 52 257 2z"/>
</g>
</svg>
